<svg xmlns="http://www.w3.org/2000/svg" width="534" height="197" viewBox="0 0 534 197" font-family="ui-monospace, SFMono-Regular, Menlo, Consolas, monospace" font-size="15">
<rect width="534" height="197" rx="12" fill="#0d1117"/>
<rect x="0.5" y="0.5" width="533" height="196" rx="12" fill="none" stroke="#30363d"/>
<text x="18.0" y="33" fill="rgb(96,141,204)">📁</text>
<text x="43.8" y="33" fill="rgb(96,141,204)">R</text>
<text x="52.4" y="33" fill="rgb(96,141,204)">e</text>
<text x="61.0" y="33" fill="rgb(96,141,204)">p</text>
<text x="69.6" y="33" fill="rgb(96,141,204)">o</text>
<text x="78.2" y="33" fill="rgb(96,141,204)">:</text>
<text x="121.2" y="33" fill="#58a6ff" font-weight="bold">m</text>
<text x="129.8" y="33" fill="#58a6ff" font-weight="bold">y</text>
<text x="138.4" y="33" fill="#58a6ff" font-weight="bold">-</text>
<text x="147.0" y="33" fill="#58a6ff" font-weight="bold">p</text>
<text x="155.6" y="33" fill="#58a6ff" font-weight="bold">r</text>
<text x="164.2" y="33" fill="#58a6ff" font-weight="bold">o</text>
<text x="172.8" y="33" fill="#58a6ff" font-weight="bold">j</text>
<text x="181.4" y="33" fill="#58a6ff" font-weight="bold">e</text>
<text x="190.0" y="33" fill="#58a6ff" font-weight="bold">c</text>
<text x="198.6" y="33" fill="#58a6ff" font-weight="bold">t</text>
<text x="336.2" y="33" fill="#c9d1d9" fill-opacity="0.55">│</text>
<text x="353.4" y="33" fill="rgb(96,141,204)">🌿</text>
<text x="379.2" y="33" fill="rgb(96,141,204)">B</text>
<text x="387.8" y="33" fill="rgb(96,141,204)">r</text>
<text x="396.4" y="33" fill="rgb(96,141,204)">a</text>
<text x="405.0" y="33" fill="rgb(96,141,204)">n</text>
<text x="413.6" y="33" fill="rgb(96,141,204)">c</text>
<text x="422.2" y="33" fill="rgb(96,141,204)">h</text>
<text x="430.8" y="33" fill="rgb(96,141,204)">:</text>
<text x="448.0" y="33" fill="#bc8cff">m</text>
<text x="456.6" y="33" fill="#bc8cff">a</text>
<text x="465.2" y="33" fill="#bc8cff">i</text>
<text x="473.8" y="33" fill="#bc8cff">n</text>
<text x="18.0" y="56" fill="rgb(139,171,216)">🔀</text>
<text x="43.8" y="56" fill="rgb(139,171,216)">P</text>
<text x="52.4" y="56" fill="rgb(139,171,216)">R</text>
<text x="61.0" y="56" fill="rgb(139,171,216)">:</text>
<text x="121.2" y="56" fill="#3fb950">#</text>
<text x="129.8" y="56" fill="#3fb950">4</text>
<text x="138.4" y="56" fill="#3fb950">2</text>
<text x="155.6" y="56" fill="#3fb950">a</text>
<text x="164.2" y="56" fill="#3fb950">p</text>
<text x="172.8" y="56" fill="#3fb950">p</text>
<text x="181.4" y="56" fill="#3fb950">r</text>
<text x="190.0" y="56" fill="#3fb950">o</text>
<text x="198.6" y="56" fill="#3fb950">v</text>
<text x="207.2" y="56" fill="#3fb950">e</text>
<text x="215.8" y="56" fill="#3fb950">d</text>
<text x="18.0" y="79" fill="rgb(183,202,228)">🤖</text>
<text x="43.8" y="79" fill="rgb(183,202,228)">M</text>
<text x="52.4" y="79" fill="rgb(183,202,228)">o</text>
<text x="61.0" y="79" fill="rgb(183,202,228)">d</text>
<text x="69.6" y="79" fill="rgb(183,202,228)">e</text>
<text x="78.2" y="79" fill="rgb(183,202,228)">l</text>
<text x="86.8" y="79" fill="rgb(183,202,228)">:</text>
<text x="121.2" y="79" fill="#39c5cf" font-weight="bold">O</text>
<text x="129.8" y="79" fill="#39c5cf" font-weight="bold">p</text>
<text x="138.4" y="79" fill="#39c5cf" font-weight="bold">u</text>
<text x="147.0" y="79" fill="#39c5cf" font-weight="bold">s</text>
<text x="164.2" y="79" fill="#39c5cf" font-weight="bold">4</text>
<text x="172.8" y="79" fill="#39c5cf" font-weight="bold">.</text>
<text x="181.4" y="79" fill="#39c5cf" font-weight="bold">8</text>
<text x="198.6" y="79" fill="#39c5cf" font-weight="bold">(</text>
<text x="207.2" y="79" fill="#39c5cf" font-weight="bold">1</text>
<text x="215.8" y="79" fill="#39c5cf" font-weight="bold">M</text>
<text x="224.4" y="79" fill="#39c5cf" font-weight="bold">)</text>
<text x="336.2" y="79" fill="#c9d1d9" fill-opacity="0.55">│</text>
<text x="353.4" y="79" fill="rgb(183,202,228)">⚡</text>
<text x="379.2" y="79" fill="rgb(183,202,228)">E</text>
<text x="387.8" y="79" fill="rgb(183,202,228)">f</text>
<text x="396.4" y="79" fill="rgb(183,202,228)">f</text>
<text x="405.0" y="79" fill="rgb(183,202,228)">o</text>
<text x="413.6" y="79" fill="rgb(183,202,228)">r</text>
<text x="422.2" y="79" fill="rgb(183,202,228)">t</text>
<text x="430.8" y="79" fill="rgb(183,202,228)">:</text>
<text x="448.0" y="79" fill="#bc8cff">h</text>
<text x="456.6" y="79" fill="#bc8cff">i</text>
<text x="465.2" y="79" fill="#bc8cff">g</text>
<text x="473.8" y="79" fill="#bc8cff">h</text>
<text x="18.0" y="102" fill="rgb(226,232,240)">🧠</text>
<text x="43.8" y="102" fill="rgb(226,232,240)">C</text>
<text x="52.4" y="102" fill="rgb(226,232,240)">o</text>
<text x="61.0" y="102" fill="rgb(226,232,240)">n</text>
<text x="69.6" y="102" fill="rgb(226,232,240)">t</text>
<text x="78.2" y="102" fill="rgb(226,232,240)">e</text>
<text x="86.8" y="102" fill="rgb(226,232,240)">x</text>
<text x="95.4" y="102" fill="rgb(226,232,240)">t</text>
<text x="104.0" y="102" fill="rgb(226,232,240)">:</text>
<text x="121.2" y="102" fill="#d29922">█</text>
<text x="129.8" y="102" fill="#d29922">█</text>
<text x="138.4" y="102" fill="#d29922">█</text>
<text x="147.0" y="102" fill="#d29922">█</text>
<text x="155.6" y="102" fill="#d29922">█</text>
<text x="164.2" y="102" fill="#d29922">█</text>
<text x="172.8" y="102" fill="#d29922" fill-opacity="0.55">░</text>
<text x="181.4" y="102" fill="#d29922" fill-opacity="0.55">░</text>
<text x="190.0" y="102" fill="#d29922" fill-opacity="0.55">░</text>
<text x="198.6" y="102" fill="#d29922" fill-opacity="0.55">░</text>
<text x="215.8" y="102" fill="#d29922">6</text>
<text x="224.4" y="102" fill="#d29922">3</text>
<text x="233.0" y="102" fill="#d29922">0</text>
<text x="241.6" y="102" fill="#d29922">k</text>
<text x="250.2" y="102" fill="#d29922">/</text>
<text x="258.8" y="102" fill="#d29922">1</text>
<text x="267.4" y="102" fill="#d29922">M</text>
<text x="284.6" y="102" fill="#c9d1d9" fill-opacity="0.55">(</text>
<text x="293.2" y="102" fill="#c9d1d9" fill-opacity="0.55">6</text>
<text x="301.8" y="102" fill="#c9d1d9" fill-opacity="0.55">3</text>
<text x="310.4" y="102" fill="#c9d1d9" fill-opacity="0.55">%</text>
<text x="319.0" y="102" fill="#c9d1d9" fill-opacity="0.55">)</text>
<text x="18.0" y="125" fill="rgb(200,209,221)">💰</text>
<text x="43.8" y="125" fill="rgb(200,209,221)">C</text>
<text x="52.4" y="125" fill="rgb(200,209,221)">o</text>
<text x="61.0" y="125" fill="rgb(200,209,221)">s</text>
<text x="69.6" y="125" fill="rgb(200,209,221)">t</text>
<text x="78.2" y="125" fill="rgb(200,209,221)">:</text>
<text x="121.2" y="125" fill="#3fb950" font-weight="bold">$</text>
<text x="129.8" y="125" fill="#3fb950" font-weight="bold">1</text>
<text x="138.4" y="125" fill="#3fb950" font-weight="bold">.</text>
<text x="147.0" y="125" fill="#3fb950" font-weight="bold">4</text>
<text x="155.6" y="125" fill="#3fb950" font-weight="bold">2</text>
<text x="336.2" y="125" fill="#c9d1d9" fill-opacity="0.55">│</text>
<text x="353.4" y="125" fill="rgb(200,209,221)">🔥</text>
<text x="379.2" y="125" fill="rgb(200,209,221)">B</text>
<text x="387.8" y="125" fill="rgb(200,209,221)">u</text>
<text x="396.4" y="125" fill="rgb(200,209,221)">r</text>
<text x="405.0" y="125" fill="rgb(200,209,221)">n</text>
<text x="413.6" y="125" fill="rgb(200,209,221)">:</text>
<text x="448.0" y="125" fill="#c9d1d9" fill-opacity="0.55">$</text>
<text x="456.6" y="125" fill="#c9d1d9" fill-opacity="0.55">5</text>
<text x="465.2" y="125" fill="#c9d1d9" fill-opacity="0.55">.</text>
<text x="473.8" y="125" fill="#c9d1d9" fill-opacity="0.55">4</text>
<text x="482.4" y="125" fill="#c9d1d9" fill-opacity="0.55">8</text>
<text x="491.0" y="125" fill="#c9d1d9" fill-opacity="0.55">/</text>
<text x="499.6" y="125" fill="#c9d1d9" fill-opacity="0.55">h</text>
<text x="18.0" y="148" fill="rgb(174,186,203)">⏱</text>
<text x="35.2" y="148" fill="rgb(174,186,203)">️</text>
<text x="43.8" y="148" fill="rgb(174,186,203)">T</text>
<text x="52.4" y="148" fill="rgb(174,186,203)">i</text>
<text x="61.0" y="148" fill="rgb(174,186,203)">m</text>
<text x="69.6" y="148" fill="rgb(174,186,203)">e</text>
<text x="78.2" y="148" fill="rgb(174,186,203)">:</text>
<text x="121.2" y="148" fill="#c9d1d9" fill-opacity="0.55">1</text>
<text x="129.8" y="148" fill="#c9d1d9" fill-opacity="0.55">5</text>
<text x="138.4" y="148" fill="#c9d1d9" fill-opacity="0.55">m</text>
<text x="336.2" y="148" fill="#c9d1d9" fill-opacity="0.55">│</text>
<text x="353.4" y="148" fill="rgb(174,186,203)">✏</text>
<text x="370.6" y="148" fill="rgb(174,186,203)">️</text>
<text x="379.2" y="148" fill="rgb(174,186,203)">L</text>
<text x="387.8" y="148" fill="rgb(174,186,203)">i</text>
<text x="396.4" y="148" fill="rgb(174,186,203)">n</text>
<text x="405.0" y="148" fill="rgb(174,186,203)">e</text>
<text x="413.6" y="148" fill="rgb(174,186,203)">s</text>
<text x="422.2" y="148" fill="rgb(174,186,203)">:</text>
<text x="448.0" y="148" fill="#3fb950">+</text>
<text x="456.6" y="148" fill="#3fb950">1</text>
<text x="465.2" y="148" fill="#3fb950">5</text>
<text x="473.8" y="148" fill="#3fb950">6</text>
<text x="491.0" y="148" fill="#ff7b72">-</text>
<text x="499.6" y="148" fill="#ff7b72">2</text>
<text x="508.2" y="148" fill="#ff7b72">3</text>
<text x="18.0" y="171" fill="rgb(148,163,184)">⏳</text>
<text x="43.8" y="171" fill="rgb(148,163,184)">L</text>
<text x="52.4" y="171" fill="rgb(148,163,184)">i</text>
<text x="61.0" y="171" fill="rgb(148,163,184)">m</text>
<text x="69.6" y="171" fill="rgb(148,163,184)">i</text>
<text x="78.2" y="171" fill="rgb(148,163,184)">t</text>
<text x="86.8" y="171" fill="rgb(148,163,184)">s</text>
<text x="95.4" y="171" fill="rgb(148,163,184)">:</text>
<text x="121.2" y="171" fill="#d29922">5</text>
<text x="129.8" y="171" fill="#d29922">h</text>
<text x="147.0" y="171" fill="#d29922">4</text>
<text x="155.6" y="171" fill="#d29922">1</text>
<text x="164.2" y="171" fill="#d29922">%</text>
<text x="181.4" y="171" fill="#d29922">·</text>
<text x="198.6" y="171" fill="#d29922">7</text>
<text x="207.2" y="171" fill="#d29922">d</text>
<text x="224.4" y="171" fill="#d29922">9</text>
<text x="233.0" y="171" fill="#d29922">%</text>
</svg>