<svg xmlns="http://www.w3.org/2000/svg" width="414" height="197" viewBox="0 0 414 197" font-family="ui-monospace, SFMono-Regular, Menlo, Consolas, monospace" font-size="15">
<rect width="414" height="197" rx="12" fill="#0d1117"/>
<rect x="0.5" y="0.5" width="413" height="196" rx="12" fill="none" stroke="#30363d"/>
<text x="18.0" y="33" fill="#c9d1d9" font-weight="bold">R</text>
<text x="26.6" y="33" fill="#c9d1d9" font-weight="bold">e</text>
<text x="35.2" y="33" fill="#c9d1d9" font-weight="bold">p</text>
<text x="43.8" y="33" fill="#c9d1d9" font-weight="bold">o</text>
<text x="52.4" y="33" fill="#c9d1d9" font-weight="bold">:</text>
<text x="95.4" y="33" fill="#c9d1d9">m</text>
<text x="104.0" y="33" fill="#c9d1d9">y</text>
<text x="112.6" y="33" fill="#c9d1d9">-</text>
<text x="121.2" y="33" fill="#c9d1d9">p</text>
<text x="129.8" y="33" fill="#c9d1d9">r</text>
<text x="138.4" y="33" fill="#c9d1d9">o</text>
<text x="147.0" y="33" fill="#c9d1d9">j</text>
<text x="155.6" y="33" fill="#c9d1d9">e</text>
<text x="164.2" y="33" fill="#c9d1d9">c</text>
<text x="172.8" y="33" fill="#c9d1d9">t</text>
<text x="233.0" y="33" fill="#c9d1d9">|</text>
<text x="258.8" y="33" fill="#c9d1d9" font-weight="bold">B</text>
<text x="267.4" y="33" fill="#c9d1d9" font-weight="bold">r</text>
<text x="276.0" y="33" fill="#c9d1d9" font-weight="bold">a</text>
<text x="284.6" y="33" fill="#c9d1d9" font-weight="bold">n</text>
<text x="293.2" y="33" fill="#c9d1d9" font-weight="bold">c</text>
<text x="301.8" y="33" fill="#c9d1d9" font-weight="bold">h</text>
<text x="310.4" y="33" fill="#c9d1d9" font-weight="bold">:</text>
<text x="327.6" y="33" fill="#c9d1d9">m</text>
<text x="336.2" y="33" fill="#c9d1d9">a</text>
<text x="344.8" y="33" fill="#c9d1d9">i</text>
<text x="353.4" y="33" fill="#c9d1d9">n</text>
<text x="18.0" y="56" fill="#c9d1d9" font-weight="bold">P</text>
<text x="26.6" y="56" fill="#c9d1d9" font-weight="bold">R</text>
<text x="35.2" y="56" fill="#c9d1d9" font-weight="bold">:</text>
<text x="95.4" y="56" fill="#c9d1d9">#</text>
<text x="104.0" y="56" fill="#c9d1d9">4</text>
<text x="112.6" y="56" fill="#c9d1d9">2</text>
<text x="129.8" y="56" fill="#c9d1d9">a</text>
<text x="138.4" y="56" fill="#c9d1d9">p</text>
<text x="147.0" y="56" fill="#c9d1d9">p</text>
<text x="155.6" y="56" fill="#c9d1d9">r</text>
<text x="164.2" y="56" fill="#c9d1d9">o</text>
<text x="172.8" y="56" fill="#c9d1d9">v</text>
<text x="181.4" y="56" fill="#c9d1d9">e</text>
<text x="190.0" y="56" fill="#c9d1d9">d</text>
<text x="18.0" y="79" fill="#c9d1d9" font-weight="bold">M</text>
<text x="26.6" y="79" fill="#c9d1d9" font-weight="bold">o</text>
<text x="35.2" y="79" fill="#c9d1d9" font-weight="bold">d</text>
<text x="43.8" y="79" fill="#c9d1d9" font-weight="bold">e</text>
<text x="52.4" y="79" fill="#c9d1d9" font-weight="bold">l</text>
<text x="61.0" y="79" fill="#c9d1d9" font-weight="bold">:</text>
<text x="95.4" y="79" fill="#c9d1d9">O</text>
<text x="104.0" y="79" fill="#c9d1d9">p</text>
<text x="112.6" y="79" fill="#c9d1d9">u</text>
<text x="121.2" y="79" fill="#c9d1d9">s</text>
<text x="138.4" y="79" fill="#c9d1d9">4</text>
<text x="147.0" y="79" fill="#c9d1d9">.</text>
<text x="155.6" y="79" fill="#c9d1d9">8</text>
<text x="172.8" y="79" fill="#c9d1d9">(</text>
<text x="181.4" y="79" fill="#c9d1d9">1</text>
<text x="190.0" y="79" fill="#c9d1d9">M</text>
<text x="198.6" y="79" fill="#c9d1d9">)</text>
<text x="233.0" y="79" fill="#c9d1d9">|</text>
<text x="258.8" y="79" fill="#c9d1d9" font-weight="bold">E</text>
<text x="267.4" y="79" fill="#c9d1d9" font-weight="bold">f</text>
<text x="276.0" y="79" fill="#c9d1d9" font-weight="bold">f</text>
<text x="284.6" y="79" fill="#c9d1d9" font-weight="bold">o</text>
<text x="293.2" y="79" fill="#c9d1d9" font-weight="bold">r</text>
<text x="301.8" y="79" fill="#c9d1d9" font-weight="bold">t</text>
<text x="310.4" y="79" fill="#c9d1d9" font-weight="bold">:</text>
<text x="327.6" y="79" fill="#c9d1d9">h</text>
<text x="336.2" y="79" fill="#c9d1d9">i</text>
<text x="344.8" y="79" fill="#c9d1d9">g</text>
<text x="353.4" y="79" fill="#c9d1d9">h</text>
<text x="18.0" y="102" fill="#c9d1d9" font-weight="bold">C</text>
<text x="26.6" y="102" fill="#c9d1d9" font-weight="bold">o</text>
<text x="35.2" y="102" fill="#c9d1d9" font-weight="bold">n</text>
<text x="43.8" y="102" fill="#c9d1d9" font-weight="bold">t</text>
<text x="52.4" y="102" fill="#c9d1d9" font-weight="bold">e</text>
<text x="61.0" y="102" fill="#c9d1d9" font-weight="bold">x</text>
<text x="69.6" y="102" fill="#c9d1d9" font-weight="bold">t</text>
<text x="78.2" y="102" fill="#c9d1d9" font-weight="bold">:</text>
<text x="95.4" y="102" fill="#c9d1d9">6</text>
<text x="104.0" y="102" fill="#c9d1d9">3</text>
<text x="112.6" y="102" fill="#c9d1d9">0</text>
<text x="121.2" y="102" fill="#c9d1d9">k</text>
<text x="129.8" y="102" fill="#c9d1d9">/</text>
<text x="138.4" y="102" fill="#c9d1d9">1</text>
<text x="147.0" y="102" fill="#c9d1d9">M</text>
<text x="164.2" y="102" fill="#c9d1d9">(</text>
<text x="172.8" y="102" fill="#c9d1d9">6</text>
<text x="181.4" y="102" fill="#c9d1d9">3</text>
<text x="190.0" y="102" fill="#c9d1d9">%</text>
<text x="198.6" y="102" fill="#c9d1d9">)</text>
<text x="18.0" y="125" fill="#c9d1d9" font-weight="bold">C</text>
<text x="26.6" y="125" fill="#c9d1d9" font-weight="bold">o</text>
<text x="35.2" y="125" fill="#c9d1d9" font-weight="bold">s</text>
<text x="43.8" y="125" fill="#c9d1d9" font-weight="bold">t</text>
<text x="52.4" y="125" fill="#c9d1d9" font-weight="bold">:</text>
<text x="95.4" y="125" fill="#c9d1d9">$</text>
<text x="104.0" y="125" fill="#c9d1d9">1</text>
<text x="112.6" y="125" fill="#c9d1d9">.</text>
<text x="121.2" y="125" fill="#c9d1d9">4</text>
<text x="129.8" y="125" fill="#c9d1d9">2</text>
<text x="233.0" y="125" fill="#c9d1d9">|</text>
<text x="258.8" y="125" fill="#c9d1d9" font-weight="bold">B</text>
<text x="267.4" y="125" fill="#c9d1d9" font-weight="bold">u</text>
<text x="276.0" y="125" fill="#c9d1d9" font-weight="bold">r</text>
<text x="284.6" y="125" fill="#c9d1d9" font-weight="bold">n</text>
<text x="293.2" y="125" fill="#c9d1d9" font-weight="bold">:</text>
<text x="327.6" y="125" fill="#c9d1d9">$</text>
<text x="336.2" y="125" fill="#c9d1d9">5</text>
<text x="344.8" y="125" fill="#c9d1d9">.</text>
<text x="353.4" y="125" fill="#c9d1d9">4</text>
<text x="362.0" y="125" fill="#c9d1d9">8</text>
<text x="370.6" y="125" fill="#c9d1d9">/</text>
<text x="379.2" y="125" fill="#c9d1d9">h</text>
<text x="18.0" y="148" fill="#c9d1d9" font-weight="bold">T</text>
<text x="26.6" y="148" fill="#c9d1d9" font-weight="bold">i</text>
<text x="35.2" y="148" fill="#c9d1d9" font-weight="bold">m</text>
<text x="43.8" y="148" fill="#c9d1d9" font-weight="bold">e</text>
<text x="52.4" y="148" fill="#c9d1d9" font-weight="bold">:</text>
<text x="95.4" y="148" fill="#c9d1d9">1</text>
<text x="104.0" y="148" fill="#c9d1d9">5</text>
<text x="112.6" y="148" fill="#c9d1d9">m</text>
<text x="233.0" y="148" fill="#c9d1d9">|</text>
<text x="258.8" y="148" fill="#c9d1d9" font-weight="bold">L</text>
<text x="267.4" y="148" fill="#c9d1d9" font-weight="bold">i</text>
<text x="276.0" y="148" fill="#c9d1d9" font-weight="bold">n</text>
<text x="284.6" y="148" fill="#c9d1d9" font-weight="bold">e</text>
<text x="293.2" y="148" fill="#c9d1d9" font-weight="bold">s</text>
<text x="301.8" y="148" fill="#c9d1d9" font-weight="bold">:</text>
<text x="327.6" y="148" fill="#c9d1d9">+</text>
<text x="336.2" y="148" fill="#c9d1d9">1</text>
<text x="344.8" y="148" fill="#c9d1d9">5</text>
<text x="353.4" y="148" fill="#c9d1d9">6</text>
<text x="370.6" y="148" fill="#c9d1d9">-</text>
<text x="379.2" y="148" fill="#c9d1d9">2</text>
<text x="387.8" y="148" fill="#c9d1d9">3</text>
<text x="18.0" y="171" fill="#c9d1d9" font-weight="bold">L</text>
<text x="26.6" y="171" fill="#c9d1d9" font-weight="bold">i</text>
<text x="35.2" y="171" fill="#c9d1d9" font-weight="bold">m</text>
<text x="43.8" y="171" fill="#c9d1d9" font-weight="bold">i</text>
<text x="52.4" y="171" fill="#c9d1d9" font-weight="bold">t</text>
<text x="61.0" y="171" fill="#c9d1d9" font-weight="bold">s</text>
<text x="69.6" y="171" fill="#c9d1d9" font-weight="bold">:</text>
<text x="95.4" y="171" fill="#c9d1d9">5</text>
<text x="104.0" y="171" fill="#c9d1d9">h</text>
<text x="121.2" y="171" fill="#c9d1d9">4</text>
<text x="129.8" y="171" fill="#c9d1d9">1</text>
<text x="138.4" y="171" fill="#c9d1d9">%</text>
<text x="155.6" y="171" fill="#c9d1d9">·</text>
<text x="172.8" y="171" fill="#c9d1d9">7</text>
<text x="181.4" y="171" fill="#c9d1d9">d</text>
<text x="198.6" y="171" fill="#c9d1d9">9</text>
<text x="207.2" y="171" fill="#c9d1d9">%</text>
</svg>