<svg xmlns="http://www.w3.org/2000/svg" width="569" height="174" viewBox="0 0 569 174" font-family="ui-monospace, SFMono-Regular, Menlo, Consolas, monospace" font-size="15">
<rect width="569" height="174" rx="12" fill="#0d1117"/>
<rect x="0.5" y="0.5" width="568" height="173" rx="12" fill="none" stroke="#30363d"/>
<text x="18.0" y="33" fill="rgb(37,99,235)">📁</text>
<text x="43.8" y="33" fill="rgb(37,99,235)">D</text>
<text x="52.4" y="33" fill="rgb(37,99,235)">i</text>
<text x="61.0" y="33" fill="rgb(37,99,235)">r</text>
<text x="69.6" y="33" fill="rgb(37,99,235)">:</text>
<text x="121.2" y="33" fill="#58a6ff" font-weight="bold">a</text>
<text x="129.8" y="33" fill="#58a6ff" font-weight="bold">d</text>
<text x="138.4" y="33" fill="#58a6ff" font-weight="bold">v</text>
<text x="147.0" y="33" fill="#58a6ff" font-weight="bold">e</text>
<text x="155.6" y="33" fill="#58a6ff" font-weight="bold">n</text>
<text x="164.2" y="33" fill="#58a6ff" font-weight="bold">t</text>
<text x="172.8" y="33" fill="#58a6ff" font-weight="bold">u</text>
<text x="181.4" y="33" fill="#58a6ff" font-weight="bold">r</text>
<text x="190.0" y="33" fill="#58a6ff" font-weight="bold">e</text>
<text x="198.6" y="33" fill="#58a6ff" font-weight="bold">l</text>
<text x="207.2" y="33" fill="#58a6ff" font-weight="bold">i</text>
<text x="215.8" y="33" fill="#58a6ff" font-weight="bold">n</text>
<text x="224.4" y="33" fill="#58a6ff" font-weight="bold">e</text>
<text x="336.2" y="33" fill="#c9d1d9" fill-opacity="0.55">│</text>
<text x="353.4" y="33" fill="rgb(37,99,235)">🔀</text>
<text x="379.2" y="33" fill="rgb(37,99,235)">P</text>
<text x="387.8" y="33" fill="rgb(37,99,235)">R</text>
<text x="396.4" y="33" fill="rgb(37,99,235)">:</text>
<text x="448.0" y="33" fill="#3fb950">#</text>
<text x="456.6" y="33" fill="#3fb950">4</text>
<text x="465.2" y="33" fill="#3fb950">2</text>
<text x="482.4" y="33" fill="#3fb950">a</text>
<text x="491.0" y="33" fill="#3fb950">p</text>
<text x="499.6" y="33" fill="#3fb950">p</text>
<text x="508.2" y="33" fill="#3fb950">r</text>
<text x="516.8" y="33" fill="#3fb950">o</text>
<text x="525.4" y="33" fill="#3fb950">v</text>
<text x="534.0" y="33" fill="#3fb950">e</text>
<text x="542.6" y="33" fill="#3fb950">d</text>
<text x="18.0" y="56" fill="rgb(72,83,236)">🤖</text>
<text x="43.8" y="56" fill="rgb(72,83,236)">M</text>
<text x="52.4" y="56" fill="rgb(72,83,236)">o</text>
<text x="61.0" y="56" fill="rgb(72,83,236)">d</text>
<text x="69.6" y="56" fill="rgb(72,83,236)">e</text>
<text x="78.2" y="56" fill="rgb(72,83,236)">l</text>
<text x="86.8" y="56" fill="rgb(72,83,236)">:</text>
<text x="121.2" y="56" fill="#39c5cf" font-weight="bold">O</text>
<text x="129.8" y="56" fill="#39c5cf" font-weight="bold">p</text>
<text x="138.4" y="56" fill="#39c5cf" font-weight="bold">u</text>
<text x="147.0" y="56" fill="#39c5cf" font-weight="bold">s</text>
<text x="164.2" y="56" fill="#39c5cf" font-weight="bold">4</text>
<text x="172.8" y="56" fill="#39c5cf" font-weight="bold">.</text>
<text x="181.4" y="56" fill="#39c5cf" font-weight="bold">8</text>
<text x="198.6" y="56" fill="#39c5cf" font-weight="bold">(</text>
<text x="207.2" y="56" fill="#39c5cf" font-weight="bold">1</text>
<text x="215.8" y="56" fill="#39c5cf" font-weight="bold">M</text>
<text x="224.4" y="56" fill="#39c5cf" font-weight="bold">)</text>
<text x="336.2" y="56" fill="#c9d1d9" fill-opacity="0.55">│</text>
<text x="353.4" y="56" fill="rgb(72,83,236)">⚡</text>
<text x="379.2" y="56" fill="rgb(72,83,236)">E</text>
<text x="387.8" y="56" fill="rgb(72,83,236)">f</text>
<text x="396.4" y="56" fill="rgb(72,83,236)">f</text>
<text x="405.0" y="56" fill="rgb(72,83,236)">o</text>
<text x="413.6" y="56" fill="rgb(72,83,236)">r</text>
<text x="422.2" y="56" fill="rgb(72,83,236)">t</text>
<text x="430.8" y="56" fill="rgb(72,83,236)">:</text>
<text x="448.0" y="56" fill="#bc8cff">h</text>
<text x="456.6" y="56" fill="#bc8cff">i</text>
<text x="465.2" y="56" fill="#bc8cff">g</text>
<text x="473.8" y="56" fill="#bc8cff">h</text>
<text x="18.0" y="79" fill="rgb(107,66,237)">🧠</text>
<text x="43.8" y="79" fill="rgb(107,66,237)">C</text>
<text x="52.4" y="79" fill="rgb(107,66,237)">o</text>
<text x="61.0" y="79" fill="rgb(107,66,237)">n</text>
<text x="69.6" y="79" fill="rgb(107,66,237)">t</text>
<text x="78.2" y="79" fill="rgb(107,66,237)">e</text>
<text x="86.8" y="79" fill="rgb(107,66,237)">x</text>
<text x="95.4" y="79" fill="rgb(107,66,237)">t</text>
<text x="104.0" y="79" fill="rgb(107,66,237)">:</text>
<text x="121.2" y="79" fill="#d29922">█</text>
<text x="129.8" y="79" fill="#d29922">█</text>
<text x="138.4" y="79" fill="#d29922">█</text>
<text x="147.0" y="79" fill="#d29922">█</text>
<text x="155.6" y="79" fill="#d29922">█</text>
<text x="164.2" y="79" fill="#d29922">█</text>
<text x="172.8" y="79" fill="#d29922" fill-opacity="0.55">░</text>
<text x="181.4" y="79" fill="#d29922" fill-opacity="0.55">░</text>
<text x="190.0" y="79" fill="#d29922" fill-opacity="0.55">░</text>
<text x="198.6" y="79" fill="#d29922" fill-opacity="0.55">░</text>
<text x="215.8" y="79" fill="#d29922">6</text>
<text x="224.4" y="79" fill="#d29922">3</text>
<text x="233.0" y="79" fill="#d29922">0</text>
<text x="241.6" y="79" fill="#d29922">k</text>
<text x="250.2" y="79" fill="#d29922">/</text>
<text x="258.8" y="79" fill="#d29922">1</text>
<text x="267.4" y="79" fill="#d29922">M</text>
<text x="284.6" y="79" fill="#c9d1d9" fill-opacity="0.55">(</text>
<text x="293.2" y="79" fill="#c9d1d9" fill-opacity="0.55">6</text>
<text x="301.8" y="79" fill="#c9d1d9" fill-opacity="0.55">3</text>
<text x="310.4" y="79" fill="#c9d1d9" fill-opacity="0.55">%</text>
<text x="319.0" y="79" fill="#c9d1d9" fill-opacity="0.55">)</text>
<text x="18.0" y="102" fill="rgb(143,54,197)">💰</text>
<text x="43.8" y="102" fill="rgb(143,54,197)">C</text>
<text x="52.4" y="102" fill="rgb(143,54,197)">o</text>
<text x="61.0" y="102" fill="rgb(143,54,197)">s</text>
<text x="69.6" y="102" fill="rgb(143,54,197)">t</text>
<text x="78.2" y="102" fill="rgb(143,54,197)">:</text>
<text x="121.2" y="102" fill="#3fb950" font-weight="bold">$</text>
<text x="129.8" y="102" fill="#3fb950" font-weight="bold">1</text>
<text x="138.4" y="102" fill="#3fb950" font-weight="bold">.</text>
<text x="147.0" y="102" fill="#3fb950" font-weight="bold">4</text>
<text x="155.6" y="102" fill="#3fb950" font-weight="bold">2</text>
<text x="336.2" y="102" fill="#c9d1d9" fill-opacity="0.55">│</text>
<text x="353.4" y="102" fill="rgb(143,54,197)">🔥</text>
<text x="379.2" y="102" fill="rgb(143,54,197)">B</text>
<text x="387.8" y="102" fill="rgb(143,54,197)">u</text>
<text x="396.4" y="102" fill="rgb(143,54,197)">r</text>
<text x="405.0" y="102" fill="rgb(143,54,197)">n</text>
<text x="413.6" y="102" fill="rgb(143,54,197)">:</text>
<text x="448.0" y="102" fill="#c9d1d9" fill-opacity="0.55">$</text>
<text x="456.6" y="102" fill="#c9d1d9" fill-opacity="0.55">5</text>
<text x="465.2" y="102" fill="#c9d1d9" fill-opacity="0.55">.</text>
<text x="473.8" y="102" fill="#c9d1d9" fill-opacity="0.55">4</text>
<text x="482.4" y="102" fill="#c9d1d9" fill-opacity="0.55">8</text>
<text x="491.0" y="102" fill="#c9d1d9" fill-opacity="0.55">/</text>
<text x="499.6" y="102" fill="#c9d1d9" fill-opacity="0.55">h</text>
<text x="18.0" y="125" fill="rgb(182,46,118)">⏱</text>
<text x="35.2" y="125" fill="rgb(182,46,118)">️</text>
<text x="43.8" y="125" fill="rgb(182,46,118)">T</text>
<text x="52.4" y="125" fill="rgb(182,46,118)">i</text>
<text x="61.0" y="125" fill="rgb(182,46,118)">m</text>
<text x="69.6" y="125" fill="rgb(182,46,118)">e</text>
<text x="78.2" y="125" fill="rgb(182,46,118)">:</text>
<text x="121.2" y="125" fill="#c9d1d9" fill-opacity="0.55">1</text>
<text x="129.8" y="125" fill="#c9d1d9" fill-opacity="0.55">5</text>
<text x="138.4" y="125" fill="#c9d1d9" fill-opacity="0.55">m</text>
<text x="336.2" y="125" fill="#c9d1d9" fill-opacity="0.55">│</text>
<text x="353.4" y="125" fill="rgb(182,46,118)">✏</text>
<text x="370.6" y="125" fill="rgb(182,46,118)">️</text>
<text x="379.2" y="125" fill="rgb(182,46,118)">L</text>
<text x="387.8" y="125" fill="rgb(182,46,118)">i</text>
<text x="396.4" y="125" fill="rgb(182,46,118)">n</text>
<text x="405.0" y="125" fill="rgb(182,46,118)">e</text>
<text x="413.6" y="125" fill="rgb(182,46,118)">s</text>
<text x="422.2" y="125" fill="rgb(182,46,118)">:</text>
<text x="448.0" y="125" fill="#3fb950">+</text>
<text x="456.6" y="125" fill="#3fb950">1</text>
<text x="465.2" y="125" fill="#3fb950">5</text>
<text x="473.8" y="125" fill="#3fb950">6</text>
<text x="491.0" y="125" fill="#ff7b72">-</text>
<text x="499.6" y="125" fill="#ff7b72">2</text>
<text x="508.2" y="125" fill="#ff7b72">3</text>
<text x="18.0" y="148" fill="rgb(220,38,38)">⏳</text>
<text x="43.8" y="148" fill="rgb(220,38,38)">L</text>
<text x="52.4" y="148" fill="rgb(220,38,38)">i</text>
<text x="61.0" y="148" fill="rgb(220,38,38)">m</text>
<text x="69.6" y="148" fill="rgb(220,38,38)">i</text>
<text x="78.2" y="148" fill="rgb(220,38,38)">t</text>
<text x="86.8" y="148" fill="rgb(220,38,38)">s</text>
<text x="95.4" y="148" fill="rgb(220,38,38)">:</text>
<text x="121.2" y="148" fill="#d29922">5</text>
<text x="129.8" y="148" fill="#d29922">h</text>
<text x="147.0" y="148" fill="#d29922">4</text>
<text x="155.6" y="148" fill="#d29922">1</text>
<text x="164.2" y="148" fill="#d29922">%</text>
<text x="181.4" y="148" fill="#d29922">·</text>
<text x="198.6" y="148" fill="#d29922">7</text>
<text x="207.2" y="148" fill="#d29922">d</text>
<text x="224.4" y="148" fill="#d29922">9</text>
<text x="233.0" y="148" fill="#d29922">%</text>
</svg>